<?xml version="1.0" encoding="UTF-8" standalone="no"?><!DOCTYPE svg PUBLIC "-//W3C//DTD SVG 1.1//EN" "http://www.w3.org/Graphics/SVG/1.1/DTD/svg11.dtd"><svg width="100%" height="100%" viewBox="0 0 144 48" version="1.1" xmlns="http://www.w3.org/2000/svg" xmlns:xlink="http://www.w3.org/1999/xlink" xml:space="preserve" xmlns:serif="http://www.serif.com/" style="fill-rule:evenodd;clip-rule:evenodd;stroke-linejoin:round;stroke-miterlimit:2;"><path d="M52.581,24.906c-0.854,2.145 -4.356,1.62 -4.356,-0.241l-0,-5.343c-0,-1.926 3.458,-2.363 4.509,-0.438l3.196,-1.291c-1.248,-2.756 -3.546,-3.565 -5.451,-3.565c-3.107,-0 -6.169,1.793 -6.169,5.294l-0,5.343c-0,3.523 3.062,5.294 6.104,5.294c1.948,0 4.29,-0.962 5.581,-3.477l-3.414,-1.576Zm76.01,2.254c1.444,1.859 3.412,2.799 5.273,2.799c2.847,0 5.997,-1.64 6.128,-4.637c0.175,-3.81 -2.581,-4.773 -5.339,-5.277c-1.205,-0.263 -2.015,-0.701 -2.059,-1.445c0.066,-1.795 2.848,-1.86 4.467,-0.131l2.559,-1.97c-1.596,-1.946 -3.412,-2.471 -5.296,-2.471c-2.846,-0 -5.601,1.596 -5.601,4.638c-0,2.955 2.274,4.532 4.769,4.926c1.271,0.175 2.694,0.679 2.651,1.554c-0.11,1.664 -3.527,1.576 -5.08,-0.306l-2.472,2.32Zm-1.468,-9.217l0,-3.718l-12.188,-0l-0,3.718l4.115,-0l-0,11.798l3.959,-0l-0,-11.798l4.114,-0Zm-60.774,11.798l4.879,-0l-4.223,-5.319c1.882,-0.59 3.041,-2.209 3.041,-5.077c-0.088,-3.633 -2.559,-5.098 -5.755,-5.098l-6.193,-0l-0,15.494l3.959,-0l-0,-4.925l0.701,-0l3.591,4.925Zm43.224,-0l4.879,-0l-4.222,-5.319c1.881,-0.59 3.04,-2.209 3.04,-5.077c-0.088,-3.633 -2.559,-5.098 -5.755,-5.098l-6.193,-0l-0,15.494l3.959,-0l-0,-4.925l0.701,-0l3.591,4.925Zm-15.496,-15.494l-3.567,-0l-5.406,15.494l4.202,-0l0.963,-3.109l4.136,0l1.007,3.109l4.201,-0l-5.536,-15.494Zm-17.204,3.674l6.829,0l0,-3.674l-10.788,-0l0,15.494l10.788,-0l0,-3.697l-6.829,0l0,-2.323l6.282,0l0,-3.39l-6.282,0l0,-2.41Zm14.271,5.234l1.138,-4.531l0.11,0l1.072,4.531l-2.32,0Zm-29.087,-1.707l-0,-3.549l2.299,0c2.475,0 2.475,3.549 0,3.549l-2.299,-0Zm43.224,-0l-0,-3.549l2.3,0c2.474,0 2.474,3.549 -0,3.549l-2.3,-0Z" style="fill-rule:nonzero;"/><path d="M34.209,10.49c0,-0.954 -0.379,-1.868 -1.053,-2.543c-0.674,-0.674 -1.589,-1.053 -2.543,-1.053c-5.812,0 -17.205,0 -23.017,0c-0.954,0 -1.869,0.379 -2.543,1.053c-0.674,0.675 -1.053,1.589 -1.053,2.543l-0,23.015c0,0.954 0.379,1.869 1.054,2.543c0.675,0.675 1.59,1.053 2.544,1.053c6.494,-0.005 19.503,-0.015 19.503,-0.015l-0.914,-3.157l8.022,7.177l0,-30.616Zm-7.992,4.946c-1.295,-0.594 -2.683,-1.031 -4.135,-1.282c-0.027,-0.005 -0.053,0.007 -0.067,0.031c-0.178,0.318 -0.376,0.732 -0.514,1.058c-1.562,-0.234 -3.115,-0.234 -4.644,-0c-0.139,-0.333 -0.344,-0.74 -0.523,-1.058c-0.014,-0.023 -0.04,-0.035 -0.067,-0.031c-1.451,0.25 -2.839,0.687 -4.135,1.282c-0.011,0.005 -0.02,0.013 -0.027,0.024c-2.633,3.934 -3.355,7.772 -3.001,11.562c0.002,0.018 0.012,0.036 0.027,0.047c1.737,1.276 3.42,2.051 5.072,2.564c0.026,0.009 0.054,-0.001 0.071,-0.023c0.391,-0.534 0.739,-1.096 1.038,-1.688c0.018,-0.034 0.001,-0.076 -0.035,-0.089c-0.553,-0.21 -1.079,-0.465 -1.585,-0.756c-0.04,-0.023 -0.043,-0.08 -0.006,-0.108c0.106,-0.079 0.213,-0.162 0.314,-0.246c0.019,-0.016 0.044,-0.019 0.066,-0.009c3.325,1.518 6.924,1.518 10.209,-0c0.022,-0.011 0.047,-0.007 0.066,0.008c0.102,0.084 0.209,0.168 0.316,0.247c0.037,0.028 0.034,0.085 -0.006,0.108c-0.506,0.296 -1.032,0.546 -1.585,0.755c-0.036,0.014 -0.052,0.056 -0.035,0.09c0.306,0.591 0.654,1.154 1.037,1.687c0.016,0.023 0.045,0.033 0.072,0.024c1.659,-0.513 3.342,-1.288 5.08,-2.564c0.015,-0.011 0.025,-0.028 0.026,-0.046c0.424,-4.382 -0.709,-8.188 -3.003,-11.563c-0.006,-0.011 -0.015,-0.019 -0.026,-0.024Zm-10.409,9.278c-1,0 -1.825,-0.919 -1.825,-2.047c-0,-1.129 0.809,-2.048 1.825,-2.048c1.025,0 1.842,0.927 1.826,2.048c-0,1.128 -0.809,2.047 -1.826,2.047Zm6.75,0c-1.001,0 -1.825,-0.919 -1.825,-2.047c-0,-1.129 0.808,-2.048 1.825,-2.048c1.025,0 1.842,0.927 1.826,2.048c-0,1.128 -0.801,2.047 -1.826,2.047Z"/></svg>