<?xml version="1.0" encoding="UTF-8" standalone="no"?><!DOCTYPE svg PUBLIC "-//W3C//DTD SVG 1.1//EN" "http://www.w3.org/Graphics/SVG/1.1/DTD/svg11.dtd"><svg width="100%" height="100%" viewBox="0 0 192 48" version="1.1" xmlns="http://www.w3.org/2000/svg" xmlns:xlink="http://www.w3.org/1999/xlink" xml:space="preserve" xmlns:serif="http://www.serif.com/" style="fill-rule:evenodd;clip-rule:evenodd;stroke-linejoin:round;stroke-miterlimit:2;"><path id="Logo" d="M136.436,25.304c-0.97,2.439 -4.952,1.842 -4.952,-0.273l-0,-6.074c-0,-2.191 3.932,-2.688 5.126,-0.498l3.634,-1.469c-1.419,-3.133 -4.032,-4.053 -6.197,-4.053c-3.533,-0 -7.015,2.039 -7.015,6.02l0,6.074c0,4.005 3.482,6.02 6.94,6.02c2.215,-0 4.878,-1.095 6.346,-3.954l-3.882,-1.793Zm-78.91,-0.298c-0,4.03 3.655,6.045 7.315,6.045c3.659,-0 7.29,-2.015 7.29,-6.045l-0,-6.025c-0,-4.03 -3.656,-6.044 -7.315,-6.044c-3.66,-0 -7.29,1.989 -7.29,6.044l-0,6.025Zm83.99,-0c0,4.03 3.656,6.045 7.315,6.045c3.659,-0 7.29,-2.015 7.29,-6.045l-0,-6.025c-0,-4.03 -3.656,-6.044 -7.315,-6.044c-3.659,-0 -7.29,1.989 -7.29,6.044l0,6.025Zm33.049,-11.821l-0,17.617l6.593,-0c3.534,0.025 6.842,-1.741 6.842,-5.796l0,-5.925c0,-4.105 -3.308,-5.896 -6.842,-5.896l-6.593,0Zm-131.996,17.617l4.452,-0l-0,-5.152l2.614,0c4.256,0 6.419,-3.108 6.419,-6.245c0,-3.111 -2.138,-6.22 -6.443,-6.22l-7.042,0l0,17.617Zm125.301,-0l5.547,-0l-4.801,-6.047c2.139,-0.672 3.457,-2.512 3.457,-5.773c-0.1,-4.13 -2.91,-5.797 -6.543,-5.797l-7.042,0l0,17.617l4.502,-0l-0,-5.6l0.796,0l4.084,5.6Zm-46.96,-0l5.547,-0l-4.801,-6.047c2.139,-0.672 3.457,-2.512 3.457,-5.773c-0.099,-4.13 -2.91,-5.797 -6.543,-5.797l-7.042,0l0,17.617l4.502,-0l-0,-5.6l0.796,0l4.084,5.6Zm-19.513,-13.439l7.764,0l0,-4.178l-12.266,0l0,17.617l12.266,-0l0,-4.203l-7.764,0l-0,-2.641l7.142,0l-0,-3.854l-7.142,-0l-0,-2.741Zm-10.502,-4.178l-2.669,10.215l-2.432,-7.925l-3.384,-0l-2.522,7.925l-2.529,-10.215l-4.628,0l5.101,17.617l4.13,-0l2.066,-8.906l0.074,-0l2.19,8.906l4.131,-0l5.076,-17.617l-4.604,0Zm-28.918,5.796c0,-1.294 1.395,-1.991 2.789,-1.991c1.444,-0 2.913,0.622 2.913,1.991l0,6.025c0,1.269 -1.419,1.917 -2.838,1.917c-1.42,-0 -2.864,-0.623 -2.864,-1.917l0,-6.025Zm83.99,0c0,-1.294 1.395,-1.991 2.789,-1.991c1.444,-0 2.914,0.622 2.914,1.991l-0,6.025c-0,1.269 -1.42,1.917 -2.839,1.917c-1.419,-0 -2.864,-0.623 -2.864,-1.917l0,-6.025Zm33.074,7.643l0,-9.286l2.266,0c1.494,0 2.217,0.722 2.217,1.867l-0,5.502c-0,1.145 -0.698,1.917 -2.217,1.917l-2.266,-0Zm-132.02,-4.927l-0,-4.359l2.59,0c2.688,-0.025 2.688,4.383 -0,4.359l-2.59,-0Zm115.969,-0.324l-0,-4.035l2.614,0c2.813,0 2.813,4.035 0,4.035l-2.614,-0Zm-46.96,-0l-0,-4.035l2.614,0c2.813,0 2.813,4.035 0,4.035l-2.614,-0Z" style="fill-rule:nonzero;"/><path id="Icon" d="M15.256,11.656l5.369,-5.369c0.981,-0.98 2.571,-0.98 3.552,0c0.98,0.981 0.98,2.571 -0,3.552l-5.369,5.368l4.005,4.005l5.368,-5.368c0.981,-0.981 2.571,-0.981 3.552,-0c0.981,0.98 0.981,2.571 0,3.551l-5.369,5.369l1.208,1.207c0.222,0.223 0.222,0.577 -0,0.799l-1.986,1.986c-0.223,0.223 -0.577,0.223 -0.8,0l-0.395,-0.395l-6.609,6.609c-1.401,1.4 -3.683,1.4 -5.076,-0l-2.233,-2.234l-1.994,1.995c-0.223,0.214 -0.577,0.214 -0.8,-0l-0.753,-0.754c-0.938,1.319 -0.816,3.163 0.366,4.338l5.175,5.175c0.222,0.223 0.222,0.577 0,0.799c-0.222,0.223 -0.585,0.206 -0.808,-0.016l-5.166,-5.167c-1.62,-1.62 -1.745,-4.173 -0.375,-5.937l-0.828,-0.828c-0.223,-0.223 -0.223,-0.577 -0,-0.799l1.994,-1.995l-2.233,-2.233c-1.401,-1.401 -1.401,-3.675 -0,-5.076l6.608,-6.609l-0.395,-0.395c-0.223,-0.223 -0.223,-0.577 -0,-0.8l1.986,-1.985c0.222,-0.223 0.577,-0.223 0.799,-0l1.207,1.207Z" style="fill-rule:nonzero;"/></svg>