<?xml version="1.0" encoding="UTF-8" standalone="no"?>
<!DOCTYPE svg PUBLIC "-//W3C//DTD SVG 1.1//EN" "http://www.w3.org/Graphics/SVG/1.1/DTD/svg11.dtd">
<svg width="100%" height="100%" viewBox="0 0 2160 2160" version="1.1" xmlns="http://www.w3.org/2000/svg" xmlns:xlink="http://www.w3.org/1999/xlink" xml:space="preserve" xmlns:serif="http://www.serif.com/" style="fill-rule:evenodd;clip-rule:evenodd;stroke-linejoin:round;stroke-miterlimit:2;">
    <rect id="ArtBoard1" x="0" y="0" width="2160" height="2160" style="fill:none;"/>
    <g id="ArtBoard11" serif:id="ArtBoard1">
        <g transform="matrix(2.72558,0,0,2.72558,-1864.54,-1628.36)">
            <path d="M831.771,1179.69C799.367,1179.69 773.059,1153.38 773.059,1120.98L773.059,749.134C773.059,716.73 799.367,690.422 831.771,690.422L1328.9,690.422C1361.3,690.422 1387.61,716.73 1387.61,749.134L1387.61,1120.98C1387.61,1153.38 1361.3,1179.69 1328.9,1179.69L1044.82,1179.69C1044.82,1179.69 954.561,1269.94 928.734,1295.77C927.59,1296.91 925.869,1297.26 924.374,1296.64C922.88,1296.02 921.905,1294.56 921.905,1292.94L921.905,1179.69L831.771,1179.69Z"/>
        </g>
    </g>
</svg>
