<?xml version="1.0" encoding="UTF-8" standalone="no"?>
<!DOCTYPE svg PUBLIC "-//W3C//DTD SVG 1.1//EN" "http://www.w3.org/Graphics/SVG/1.1/DTD/svg11.dtd">
<svg width="100%" height="100%" viewBox="0 0 1800 1500" version="1.1" xmlns="http://www.w3.org/2000/svg" xmlns:xlink="http://www.w3.org/1999/xlink" xml:space="preserve" xmlns:serif="http://www.serif.com/" style="fill-rule:evenodd;clip-rule:evenodd;stroke-linejoin:round;stroke-miterlimit:2;">
    <g transform="matrix(1,0,0,1,-179.989,-276.783)">
        <path d="M1979.99,436.783C1979.99,394.348 1963.13,353.652 1933.13,323.646C1903.12,293.64 1862.42,276.783 1819.99,276.783L339.989,276.783C297.555,276.783 256.858,293.64 226.852,323.646C196.846,353.652 179.989,394.348 179.989,436.783C179.989,725.073 179.989,1328.49 179.989,1616.78C179.989,1659.22 196.846,1699.91 226.852,1729.92C256.858,1759.93 297.555,1776.78 339.989,1776.78C681.509,1776.78 1478.47,1776.78 1819.99,1776.78C1862.42,1776.78 1903.12,1759.93 1933.13,1729.92C1963.13,1699.91 1979.99,1659.22 1979.99,1616.78C1979.99,1328.49 1979.99,725.073 1979.99,436.783ZM928.27,975.255L928.27,1314.73C855.524,1362.22 769.644,1388.49 673.66,1388.49C452.392,1388.49 330.139,1243 330.139,1027.79C330.139,811.577 462.496,665.076 677.701,665.076C763.582,665.076 835.317,685.283 890.886,716.604L867.648,867.147C815.11,833.805 753.478,807.536 681.743,807.536C561.511,807.536 502.91,896.447 502.91,1026.78C502.91,1158.13 563.531,1250.07 683.764,1250.07C722.157,1250.07 749.437,1241.99 777.727,1227.84L777.727,1103.57L647.391,1103.57L647.391,975.255L928.27,975.255ZM1078.45,678.21L1251.22,678.21L1251.22,1375.36L1078.45,1375.36L1078.45,678.21ZM1829.84,678.21L1829.84,822.691L1584.32,822.691L1584.32,965.151L1778.31,965.151L1778.31,1109.63L1584.32,1109.63L1584.32,1375.36L1412.56,1375.36L1412.56,678.21L1829.84,678.21Z"/>
    </g>
</svg>
