<?xml version="1.0" encoding="UTF-8" standalone="no"?>
<!DOCTYPE svg PUBLIC "-//W3C//DTD SVG 1.1//EN" "http://www.w3.org/Graphics/SVG/1.1/DTD/svg11.dtd">
<svg width="100%" height="100%" viewBox="0 0 1094 1417" version="1.1" xmlns="http://www.w3.org/2000/svg" xmlns:xlink="http://www.w3.org/1999/xlink" xml:space="preserve" xmlns:serif="http://www.serif.com/" style="fill-rule:evenodd;clip-rule:evenodd;stroke-linejoin:round;stroke-miterlimit:2;">
    <g transform="matrix(1,0,0,1,-533.372,-318.325)">
        <g transform="matrix(3.1645,0,0,3.1645,372.773,319.354)">
            <path d="M187.35,73.75L252.5,8.6C264.4,-3.3 283.7,-3.3 295.6,8.6C307.5,20.5 307.5,39.8 295.6,51.7L230.45,116.85L279.05,165.45L344.2,100.3C356.1,88.4 375.4,88.4 387.3,100.3C399.2,112.2 399.2,131.5 387.3,143.4L322.15,208.55L336.8,223.2C339.5,225.9 339.5,230.2 336.8,232.9L312.7,257C310,259.7 305.7,259.7 303,257L298.2,252.2L218,332.4C201,349.4 173.3,349.4 156.4,332.4L129.3,305.3L105.1,329.5C102.4,332.1 98.1,332.1 95.4,329.5L86.255,320.355C74.871,336.364 76.353,358.742 90.7,373L153.5,435.8C156.2,438.5 156.2,442.8 153.5,445.5C150.8,448.2 146.4,448 143.7,445.3L81,382.6C61.342,362.942 59.827,331.956 76.453,310.553L66.4,300.5C63.7,297.8 63.7,293.5 66.4,290.8L90.6,266.6L63.5,239.5C46.5,222.5 46.5,194.9 63.5,177.9L143.7,97.7L138.9,92.9C136.2,90.2 136.2,85.9 138.9,83.2L163,59.1C165.7,56.4 170,56.4 172.7,59.1L187.35,73.75Z" style="fill-rule:nonzero;"/>
        </g>
    </g>
</svg>
