<?xml version="1.0" encoding="UTF-8" standalone="no"?>
<!DOCTYPE svg PUBLIC "-//W3C//DTD SVG 1.1//EN" "http://www.w3.org/Graphics/SVG/1.1/DTD/svg11.dtd">
<svg width="100%" height="100%" viewBox="0 0 1800 1500" version="1.1" xmlns="http://www.w3.org/2000/svg" xmlns:xlink="http://www.w3.org/1999/xlink" xml:space="preserve" xmlns:serif="http://www.serif.com/" style="fill-rule:evenodd;clip-rule:evenodd;stroke-linejoin:round;stroke-miterlimit:2;">
    <g transform="matrix(1,0,0,1,-179.989,-276.783)">
        <path d="M1979.99,419.684C1979.99,340.815 1915.96,276.783 1837.09,276.783L322.89,276.783C244.021,276.783 179.989,340.815 179.989,419.684L179.989,1633.88C179.989,1712.75 244.021,1776.78 322.89,1776.78L1837.09,1776.78C1915.96,1776.78 1979.99,1712.75 1979.99,1633.88L1979.99,419.684ZM657.762,908.729L657.762,849.503L488.179,849.503L488.179,1204.06L657.762,1204.06L657.762,1085.61L572.971,1085.61L572.971,967.956L826.199,967.956L826.199,1262.49C826.199,1279.03 818.178,1292.9 802.136,1304.11C785.331,1315.85 765.47,1321.72 742.553,1321.72L404.534,1321.72C380.853,1321.72 360.992,1315.85 344.951,1304.11C328.145,1292.9 319.742,1279.03 319.742,1262.49L319.742,790.276C319.742,774.269 328.145,760.396 344.951,748.657C360.992,737.452 380.853,731.849 404.534,731.849L742.553,731.849C765.47,731.849 785.331,737.452 802.136,748.657C818.178,760.396 826.199,774.269 826.199,790.276L826.199,908.729L657.762,908.729ZM995.782,731.849L1164.22,731.849L1164.22,1321.72L995.782,1321.72L995.782,731.849ZM1839.92,731.849L1333.8,731.849L1333.8,1321.72L1502.24,1321.72L1502.24,1085.61L1755.7,1085.61L1755.7,967.956L1502.24,967.956L1502.24,849.503L1839.92,849.503L1839.92,731.849Z"/>
    </g>
</svg>
