<?xml version="1.0" encoding="UTF-8" standalone="no"?>
<!DOCTYPE svg PUBLIC "-//W3C//DTD SVG 1.1//EN" "http://www.w3.org/Graphics/SVG/1.1/DTD/svg11.dtd">
<svg width="100%" height="100%" viewBox="0 0 512 437" version="1.1" xmlns="http://www.w3.org/2000/svg" xmlns:xlink="http://www.w3.org/1999/xlink" xml:space="preserve" xmlns:serif="http://www.serif.com/" style="fill-rule:evenodd;clip-rule:evenodd;stroke-linejoin:round;stroke-miterlimit:2;">
    <g transform="matrix(1,0,0,1,0,-37.6741)">
        <g transform="matrix(1.37873,0,0,1.37873,-96.9561,-96.9561)">
            <path d="M256,271.638C267.652,271.638 283.195,267.106 290.955,259.108C336.21,266.569 351.865,276.499 362.908,294.39C375.436,314.688 373.873,339.61 375.973,378.54C356.011,402.79 295.991,414.352 256,414.352C216.009,414.352 155.989,402.79 136.027,378.54C138.127,339.61 136.564,314.688 149.092,294.39C160.135,276.499 175.79,266.569 221.045,259.108C228.866,267.168 244.348,271.638 256,271.638ZM119.195,365.41C96.525,361.307 79.211,353.465 70.323,340.592C70.328,296.12 73.188,286.759 81.143,271.964C88.585,258.12 113.374,247.149 140.124,243.201C143.741,249.389 156.385,255.241 169.256,254.814C132.031,270.031 118.196,309.782 119.195,365.41ZM392.805,365.41C415.475,361.307 432.789,353.465 441.677,340.592C441.672,296.12 438.812,286.759 430.857,271.964C423.415,258.12 398.626,247.149 371.876,243.201C368.259,249.389 355.615,255.241 342.744,254.814C379.969,270.031 393.804,309.782 392.805,365.41ZM256.181,97.649C256.242,97.648 256.302,97.648 256.363,97.648C273.072,97.648 293.119,102.313 304.362,115.526C316.401,129.674 319.684,153.744 319.684,175.896C319.684,218.737 290.965,252.892 256.363,252.892C256.242,252.892 256.121,252.89 256,252.886L255.637,252.892C221.035,252.892 192.316,218.737 192.316,175.896C192.316,153.744 195.599,129.674 207.638,115.526C218.881,102.313 238.928,97.648 255.637,97.648C255.758,97.648 255.879,97.65 256,97.653L256.181,97.649ZM186.714,115.926C186.771,115.937 173.758,135.823 175.421,172.66C177.245,213.051 192.009,232.062 191.953,232.092C153.749,252.765 116.874,223.384 116.091,180.387C115.688,158.238 117.326,144.219 127.909,128.951C139.737,111.887 169.388,112.409 186.714,115.926ZM325.286,115.926C325.229,115.937 338.242,135.823 336.579,172.66C334.755,213.051 319.991,232.062 320.047,232.092C358.251,252.765 395.126,223.384 395.909,180.387C396.312,158.238 394.674,144.219 384.091,128.951C372.263,111.887 342.612,112.409 325.286,115.926Z"/>
        </g>
    </g>
</svg>
