<?xml version="1.0" encoding="UTF-8" standalone="no"?>
<!DOCTYPE svg PUBLIC "-//W3C//DTD SVG 1.1//EN" "http://www.w3.org/Graphics/SVG/1.1/DTD/svg11.dtd">
<svg width="100%" height="100%" viewBox="0 0 1800 1800" version="1.1" xmlns="http://www.w3.org/2000/svg" xmlns:xlink="http://www.w3.org/1999/xlink" xml:space="preserve" xmlns:serif="http://www.serif.com/" style="fill-rule:evenodd;clip-rule:evenodd;stroke-linejoin:round;stroke-miterlimit:2;">
    <g transform="matrix(1,0,0,1,-179.989,-180)">
        <path d="M1079.99,180C1576.71,180 1979.99,583.276 1979.99,1080C1979.99,1576.72 1576.71,1980 1079.99,1980C583.266,1980 179.989,1576.72 179.989,1080C179.989,583.276 583.266,180 1079.99,180ZM1571.11,1206.48C1571.11,1477.54 1351.05,1697.6 1079.99,1697.6C808.933,1697.6 588.871,1477.54 588.871,1206.48L1571.11,1206.48ZM735.94,682.104C817.11,682.104 883.01,748.004 883.01,829.174C883.01,910.344 817.11,976.243 735.94,976.243C654.77,976.243 588.871,910.344 588.871,829.174C588.871,748.004 654.77,682.104 735.94,682.104ZM1424.06,682.104C1505.23,682.104 1571.13,748.004 1571.13,829.174C1571.13,910.344 1505.23,976.243 1424.06,976.243C1342.89,976.243 1276.99,910.344 1276.99,829.174C1276.99,748.004 1342.89,682.104 1424.06,682.104Z"/>
    </g>
</svg>
