<?xml version="1.0" encoding="UTF-8" standalone="no"?>
<!DOCTYPE svg PUBLIC "-//W3C//DTD SVG 1.1//EN" "http://www.w3.org/Graphics/SVG/1.1/DTD/svg11.dtd">
<svg width="100%" height="100%" viewBox="0 0 3195 894" version="1.1" xmlns="http://www.w3.org/2000/svg" xmlns:xlink="http://www.w3.org/1999/xlink" xml:space="preserve" xmlns:serif="http://www.serif.com/" style="fill-rule:evenodd;clip-rule:evenodd;stroke-linejoin:round;stroke-miterlimit:2;">
    <rect id="ArtBoard1" x="0" y="0" width="3194.77" height="893.479" style="fill:none;"/>
    <g id="ArtBoard11" serif:id="ArtBoard1">
        <g transform="matrix(1,0,0,1,-205.664,-246.521)">
            <path d="M868.298,306.521L345.625,306.521C301.549,306.521 265.664,342.407 265.664,386.483L265.664,909.156C265.664,953.232 301.549,989.117 345.625,989.117L787.947,989.117L767.274,917.737L817.201,963.764L864.398,1007.06L948.65,1080L948.65,386.483C948.26,342.407 912.375,306.521 868.298,306.521ZM1364.01,716.563C1344.7,765.057 1265.53,753.189 1265.53,711.118L1265.53,590.335C1265.53,546.78 1343.72,536.891 1367.47,580.434L1439.72,551.231C1411.51,488.926 1359.55,470.63 1316.5,470.63C1246.24,470.63 1177.01,511.178 1177.01,590.335L1177.01,711.118C1177.01,790.77 1246.24,830.824 1315.01,830.824C1359.06,830.824 1412.01,809.066 1441.2,752.2L1364.01,716.563ZM3082.5,767.529C3115.14,809.561 3159.64,830.824 3201.72,830.824C3266.08,830.824 3337.29,793.737 3340.25,725.969C3344.21,639.838 3281.9,618.057 3219.55,606.672C3192.31,600.732 3173.98,590.832 3172.99,574.002C3174.48,533.423 3237.37,531.939 3273.99,571.031L3331.85,526.501C3295.75,482.496 3254.7,470.63 3212.12,470.63C3147.77,470.63 3085.47,506.723 3085.47,575.487C3085.47,642.313 3136.89,677.953 3193.3,686.863C3222.02,690.823 3254.21,702.209 3253.22,722.009C3250.75,759.617 3173.49,757.64 3138.38,715.079L3082.5,767.529ZM3049.31,559.147L3049.31,475.084L2773.74,475.084L2773.74,559.147L2866.77,559.147L2866.77,825.875L2956.28,825.875L2956.28,559.147L3049.31,559.147ZM1675.3,825.875L1785.59,825.875L1690.13,705.632C1732.66,692.282 1758.87,655.692 1758.87,590.843C1756.89,508.709 1701.01,475.578 1628.75,475.578L1488.74,475.578L1488.74,825.875L1578.24,825.875L1578.24,714.532L1594.09,714.532L1675.3,825.875ZM2652.53,825.875L2762.83,825.875L2667.37,705.632C2709.89,692.282 2736.1,655.692 2736.1,590.843C2734.12,508.709 2678.25,475.578 2605.99,475.578L2465.97,475.578L2465.97,825.875L2555.48,825.875L2555.48,714.532L2571.33,714.532L2652.53,825.875ZM2302.17,475.578L2221.53,475.578L2099.32,825.875L2194.32,825.875L2216.08,755.605L2309.6,755.605L2332.35,825.875L2427.35,825.875L2302.17,475.578ZM1913.23,558.652L2067.62,558.652L2067.62,475.578L1823.72,475.578L1823.72,825.875L2067.62,825.875L2067.62,742.306L1913.23,742.306L1913.23,689.789L2055.25,689.789L2055.25,613.149L1913.23,613.149L1913.23,558.652ZM717.737,811.642C717.737,811.642 703.695,794.87 691.994,780.438C743.091,766.006 762.594,734.412 762.594,734.412C746.601,744.943 731.389,752.354 717.737,757.425C698.235,765.616 679.512,770.687 661.179,774.197C623.734,781.218 589.409,779.268 560.155,773.807C537.922,769.516 518.809,763.666 502.817,757.035C493.846,753.524 484.094,749.234 474.343,743.773C473.173,742.993 472.003,742.603 470.833,741.823C470.053,741.433 469.662,741.042 469.272,741.042C462.251,737.142 458.351,734.412 458.351,734.412C458.351,734.412 477.074,765.226 526.61,780.048C514.909,794.87 500.477,812.032 500.477,812.032C414.275,809.302 381.51,753.134 381.51,753.134C381.51,628.707 437.678,527.683 437.678,527.683C493.846,485.947 546.893,487.117 546.893,487.117L550.794,491.797C480.584,511.69 448.6,542.505 448.6,542.505C448.6,542.505 457.181,537.824 471.613,531.583C513.349,513.25 546.503,508.57 560.155,507.01C562.495,506.62 564.446,506.23 566.786,506.23C590.579,503.109 617.493,502.329 645.577,505.449C682.632,509.74 722.418,520.662 762.984,542.505C762.984,542.505 732.169,513.25 665.86,493.358L671.321,487.117C671.321,487.117 724.758,485.947 780.536,527.683C780.536,527.683 836.704,628.707 836.704,753.134C836.704,752.744 803.939,808.912 717.737,811.642ZM678.732,631.047C656.499,631.047 638.946,650.16 638.946,673.953C638.946,697.746 656.889,716.859 678.732,716.859C700.965,716.859 718.517,697.746 718.517,673.953C718.517,650.16 700.575,631.047 678.732,631.047ZM536.362,631.047C514.129,631.047 496.576,650.16 496.576,673.953C496.576,697.746 514.519,716.859 536.362,716.859C558.595,716.859 576.147,697.746 576.147,673.953C576.537,650.16 558.595,631.047 536.362,631.047ZM2235.88,676.985L2261.6,574.55L2264.08,574.55L2288.32,676.985L2235.88,676.985ZM1578.24,638.386L1578.24,558.158L1630.24,558.158C1686.17,558.158 1686.17,638.386 1630.24,638.386L1578.24,638.386ZM2555.48,638.386L2555.48,558.158L2607.47,558.158C2663.41,558.158 2663.41,638.386 2607.47,638.386L2555.48,638.386Z" style="fill-rule:nonzero;"/>
        </g>
    </g>
</svg>
