<?xml version="1.0" encoding="UTF-8" standalone="no"?>
<!DOCTYPE svg PUBLIC "-//W3C//DTD SVG 1.1//EN" "http://www.w3.org/Graphics/SVG/1.1/DTD/svg11.dtd">
<svg width="100%" height="100%" viewBox="0 0 1057 1762" version="1.1" xmlns="http://www.w3.org/2000/svg" xmlns:xlink="http://www.w3.org/1999/xlink" xml:space="preserve" xmlns:serif="http://www.serif.com/" style="fill-rule:evenodd;clip-rule:evenodd;stroke-linejoin:round;stroke-miterlimit:2;">
    <g transform="matrix(1,0,0,1,-551.681,-146.255)">
        <g transform="matrix(176.106,0,0,176.106,551.681,36.1458)">
            <path d="M3,0.625L0,3.625L0,7.625L3,10.625L6,7.625L6,3.625L3,0.625ZM5,7.245L3,9.245L1,7.245L1,4.045L3,2.045L5,4.045L5,7.245Z" style="fill-rule:nonzero;"/>
        </g>
        <g transform="matrix(69.9187,0,0,69.9187,240.976,189.855)">
            <path d="M12,6.023L15,9.022L15,14.918L12,17.918L9,14.918L9,9.022L12,6.023Z"/>
        </g>
    </g>
</svg>
