<?xml version="1.0" encoding="UTF-8" standalone="no"?>
<!DOCTYPE svg PUBLIC "-//W3C//DTD SVG 1.1//EN" "http://www.w3.org/Graphics/SVG/1.1/DTD/svg11.dtd">
<svg width="100%" height="100%" viewBox="0 0 1800 1800" version="1.1" xmlns="http://www.w3.org/2000/svg" xmlns:xlink="http://www.w3.org/1999/xlink" xml:space="preserve" xmlns:serif="http://www.serif.com/" style="fill-rule:evenodd;clip-rule:evenodd;stroke-linejoin:round;stroke-miterlimit:2;">
    <g transform="matrix(1,0,0,1,-180,-180)">
        <path d="M1080,180C582.93,180 180,582.93 180,1080C180,1576.98 582.93,1980 1080,1980C1577.07,1980 1980,1576.98 1980,1080C1980,582.93 1577.07,180 1080,180ZM1546.42,955.011C1564.94,955.011 1579.96,970.025 1579.96,988.546C1579.96,1036.37 1579.96,1123.63 1579.96,1171.45C1579.96,1189.98 1564.94,1204.99 1546.42,1204.99L1238.52,1204.99C1220,1204.99 1204.99,1220 1204.99,1238.52L1204.99,1546.42C1204.99,1564.94 1189.98,1579.96 1171.45,1579.96C1123.63,1579.96 1036.37,1579.96 988.546,1579.96C970.025,1579.96 955.011,1564.94 955.011,1546.42C955.011,1475.23 955.011,1309.71 955.011,1238.52C955.011,1220 939.997,1204.99 921.476,1204.99L613.579,1204.99C595.058,1204.99 580.044,1189.98 580.044,1171.45C580.044,1123.63 580.044,1036.37 580.044,988.546C580.044,970.025 595.058,955.011 613.579,955.011C684.768,955.011 850.288,955.011 921.476,955.011C939.997,955.011 955.011,939.997 955.011,921.476L955.011,613.579C955.011,595.058 970.025,580.044 988.546,580.044C1036.37,580.044 1123.63,580.044 1171.45,580.044C1189.98,580.044 1204.99,595.058 1204.99,613.579C1204.99,684.768 1204.99,850.288 1204.99,921.476C1204.99,939.997 1220,955.011 1238.52,955.011L1546.42,955.011Z" style="fill-rule:nonzero;"/>
    </g>
</svg>
