<?xml version="1.0" encoding="UTF-8" standalone="no"?>
<!DOCTYPE svg PUBLIC "-//W3C//DTD SVG 1.1//EN" "http://www.w3.org/Graphics/SVG/1.1/DTD/svg11.dtd">
<svg width="100%" height="100%" viewBox="0 0 1995 776" version="1.1" xmlns="http://www.w3.org/2000/svg" xmlns:xlink="http://www.w3.org/1999/xlink" xml:space="preserve" xmlns:serif="http://www.serif.com/" style="fill-rule:evenodd;clip-rule:evenodd;stroke-linejoin:round;stroke-miterlimit:2;">
    <g transform="matrix(1,0,0,1,-82.6481,-638.95)">
        <g transform="matrix(1.844e-16,-3.01148,4.41456,2.70314e-16,82.6492,1707.15)">
            <path d="M345.441,248.292L151.154,442.573C138.795,454.938 118.757,454.938 106.404,442.573C94.05,430.219 94.05,410.182 106.404,397.829L278.318,225.92L106.409,54.017C94.055,41.658 94.055,21.623 106.409,9.269C118.763,-3.09 138.8,-3.09 151.159,9.269L345.446,203.553C351.623,209.733 354.708,217.824 354.708,225.919C354.708,234.018 351.617,242.115 345.441,248.292Z" style="fill-rule:nonzero;"/>
        </g>
    </g>
</svg>
