<?xml version="1.0" encoding="UTF-8" standalone="no"?>
<!DOCTYPE svg PUBLIC "-//W3C//DTD SVG 1.1//EN" "http://www.w3.org/Graphics/SVG/1.1/DTD/svg11.dtd">
<svg width="100%" height="100%" viewBox="0 0 1936 1290" version="1.1" xmlns="http://www.w3.org/2000/svg" xmlns:xlink="http://www.w3.org/1999/xlink" xml:space="preserve" xmlns:serif="http://www.serif.com/" style="fill-rule:evenodd;clip-rule:evenodd;stroke-linejoin:round;stroke-miterlimit:2;">
    <g transform="matrix(1,0,0,1,-112.067,-382.157)">
        <g transform="matrix(1.2929,0,0,1.2929,-3324.48,-2067.99)">
            <path d="M3501.38,2522.73C3449.27,2557.87 3379.02,2547.86 3338.81,2499.55C3323.64,2481.36 3307.6,2466.97 3293.33,2464.2C3277.71,2461.16 3265.38,2461.85 3237.75,2480.48C3181.63,2518.34 3101.44,2572.43 3045.31,2610.28C3032.12,2619.18 3023,2632.96 3019.97,2648.58C3016.93,2664.2 3020.22,2680.39 3029.12,2693.58C3029.12,2693.58 3029.12,2693.58 3029.12,2693.58C3168.29,2899.9 3448.36,2954.34 3654.68,2815.17C3797.21,2719.03 3952.85,2614.05 4067.63,2536.63C4151.16,2480.29 4183.47,2382.11 4127.12,2298.58C4127.12,2298.58 4127.12,2298.58 4127.12,2298.58C4070.78,2215.05 3967.65,2208.22 3884.12,2264.57C3884.12,2264.57 3643.93,2426.57 3501.38,2522.73ZM3311.96,2264.61C3364.06,2229.46 3434.31,2239.48 3474.52,2287.78C3489.69,2305.98 3505.74,2320.37 3520.01,2323.14C3535.63,2326.18 3547.95,2325.49 3575.58,2306.85C3631.71,2268.99 3711.9,2214.91 3768.02,2177.05C3781.22,2168.15 3790.33,2154.38 3793.37,2138.76C3796.41,2123.14 3793.11,2106.95 3784.21,2093.76C3784.21,2093.76 3784.21,2093.76 3784.21,2093.76C3645.05,1887.44 3364.98,1833 3158.66,1972.16C3016.12,2068.3 2860.49,2173.28 2745.71,2250.7C2662.18,2307.05 2629.87,2405.22 2686.22,2488.75C2686.22,2488.75 2686.22,2488.75 2686.22,2488.75C2742.56,2572.29 2845.69,2579.11 2929.22,2522.77C2929.22,2522.77 3169.4,2360.76 3311.96,2264.61Z"/>
        </g>
    </g>
</svg>
