<?xml version="1.0" encoding="UTF-8" standalone="no"?>
<!DOCTYPE svg PUBLIC "-//W3C//DTD SVG 1.1//EN" "http://www.w3.org/Graphics/SVG/1.1/DTD/svg11.dtd">
<svg width="100%" height="100%" viewBox="0 0 439 1762" version="1.1" xmlns="http://www.w3.org/2000/svg" xmlns:xlink="http://www.w3.org/1999/xlink" xml:space="preserve" xmlns:serif="http://www.serif.com/" style="fill-rule:evenodd;clip-rule:evenodd;stroke-linejoin:round;stroke-miterlimit:2;">
    <g transform="matrix(1,0,0,1,-860.571,-146.255)">
        <path d="M1080,1468.45C1201.11,1468.45 1299.43,1566.78 1299.43,1687.88C1299.43,1808.99 1201.11,1907.31 1080,1907.31C958.894,1907.31 860.571,1808.99 860.571,1687.88C860.571,1566.78 958.894,1468.45 1080,1468.45ZM1080,807.354C1201.11,807.354 1299.43,905.677 1299.43,1026.78C1299.43,1147.89 1201.11,1246.21 1080,1246.21C958.894,1246.21 860.571,1147.89 860.571,1026.78C860.571,905.677 958.894,807.354 1080,807.354ZM1080,146.255C1201.11,146.255 1299.43,244.578 1299.43,365.684C1299.43,486.79 1201.11,585.112 1080,585.112C958.894,585.112 860.571,486.79 860.571,365.684C860.571,244.578 958.894,146.255 1080,146.255Z"/>
    </g>
</svg>
